<?xml version="1.0" encoding="UTF-8"?>
<svg id="ic-affair" data-name="ic-affair" xmlns="http://www.w3.org/2000/svg" viewBox="0 0 32 32">
  <defs>
    <style>
      .ic-affair-svg-1 {
        stroke-linecap: round;
        stroke-linejoin: round;
        stroke-width: 1.25px;
      }

      .ic-affair-svg-1, .ic-affair-svg-2 {
        fill: none;
        stroke: currentColor;
      }

      .ic-affair-svg-2 {
        stroke-miterlimit: 10;
      }

      .ic-affair-svg-3 {
        fill: currentColor;
      }
    </style>
  </defs>
  <polygon class="ic-affair-svg-3" points="12.98 20 13.96 26.01 24.99 26.01 24.99 24.99 21.97 24.99 21.07 20 12.98 20"/>
  <path class="ic-affair-svg-1" d="M18.35,6.35c.3-.05-.31,0,0,0,3.4,0,6.15,2.76,6.15,6.15s-2.76,6.15-6.15,6.15-6.15-2.76-6.15-6.15c0-1.73.48-2.87,1.45-3.99"/>
  <path class="ic-affair-svg-3" d="M11.21,8.65l2.93-.96c.22-.07.43.12.38.34l-.61,3.05c-.05.23-.32.32-.49.16l-2.32-2.1c-.17-.15-.11-.43.11-.5Z"/>
  <polyline class="ic-affair-svg-2" points="18.39 9.06 18.39 13.23 16.62 14.9"/>
  <line class="ic-affair-svg-2" x1="6" y1="17.49" x2="11" y2="17.49"/>
  <line class="ic-affair-svg-2" x1="7.01" y1="19.49" x2="12" y2="19.49"/>
  <line class="ic-affair-svg-2" x1="6" y1="21.49" x2="12" y2="21.49"/>
  <line class="ic-affair-svg-2" x1="7.01" y1="23.5" x2="12" y2="23.5"/>
  <line class="ic-affair-svg-2" x1="7.01" y1="25.51" x2="12.98" y2="25.51"/>
</svg>
