<?xml version="1.0" encoding="UTF-8"?>
<svg id="ic-attendance" data-name="ic-attendance" xmlns="http://www.w3.org/2000/svg" viewBox="0 0 32 32">
  <defs>
    <style>
      .ic-attendance-svg-1 {
        fill: #7c7c7c;
      }

      .ic-attendance-svg-2 {
        fill: none;
        stroke: currentColor;
        stroke-miterlimit: 10;
      }

      .ic-attendance-svg-3 {
        fill: currentColor;
      }
    </style>
  </defs>
  <path class="ic-attendance-svg-3" d="M21.99,7.97v7.04h2v7.96h-2.01v.99h-11.95v-.98h-2.06v-7.98h2.06v-7.04h11.96ZM11.4,19.38c-.13.88-.56,1.58-1.31,1.68-.21.02-.3.04-.44.02v.89c1.82.11,2.63-1.51,2.63-3.52,0-1.39-.51-2.45-1.49-2.45-.92,0-1.51.97-1.51,2.06s.55,1.76,1.25,1.76c.38,0,.66-.18.85-.45h.02ZM10.76,16.81c.42,0,.63.61.63,1.39,0,.22-.01.34-.05.42-.1.22-.3.44-.57.44-.36,0-.61-.41-.61-1.1s.24-1.15.6-1.15ZM14.08,19.06c.41,0,.67-.31.67-.71s-.28-.71-.67-.71-.67.31-.67.71.25.71.67.71ZM14.08,21.97c.41,0,.67-.3.67-.71s-.28-.71-.67-.71-.67.31-.67.71.25.71.67.71ZM17.49,21.97c.95,0,1.51-1.1,1.51-3.01,0-1.61-.41-2.96-1.48-2.96s-1.52,1.24-1.52,3.01c0,1.62.44,2.97,1.49,2.97ZM17.5,21.08c-.39,0-.62-.72-.62-2.09s.25-2.09.63-2.09c.42,0,.6.77.6,2.09s-.2,2.09-.61,2.09h0ZM21.07,21.97c.95,0,1.51-1.1,1.51-3.01,0-1.61-.41-2.96-1.48-2.96s-1.52,1.24-1.52,3.01c0,1.62.44,2.97,1.49,2.97ZM21.08,21.08c-.39,0-.62-.72-.62-2.09s.25-2.09.63-2.09c.42,0,.6.77.6,2.09s-.2,2.09-.61,2.09h0ZM21.02,8.98h-10.02v6.02h10.02v-6.02Z"/>
  <path class="ic-attendance-svg-1" d="M22.99,21.97h-14.01v-5.97h14.01v5.97ZM11.4,19.38c-.13.88-.56,1.58-1.31,1.68-.21.02-.3.04-.44.02v.89c1.82.11,2.63-1.51,2.63-3.52,0-1.39-.51-2.45-1.49-2.45-.92,0-1.51.97-1.51,2.06s.55,1.76,1.25,1.76c.38,0,.66-.18.85-.45h.02ZM10.76,16.81c.42,0,.63.61.63,1.39,0,.22-.01.34-.05.42-.1.22-.3.44-.57.44-.36,0-.61-.41-.61-1.1s.24-1.15.6-1.15ZM14.08,19.06c.41,0,.67-.31.67-.71s-.28-.71-.67-.71-.67.31-.67.71.25.71.67.71ZM14.08,21.97c.41,0,.67-.3.67-.71s-.28-.71-.67-.71-.67.31-.67.71.25.71.67.71ZM17.49,21.97c.95,0,1.51-1.1,1.51-3.01,0-1.61-.41-2.96-1.48-2.96s-1.52,1.24-1.52,3.01c0,1.62.44,2.97,1.49,2.97ZM17.5,21.08c-.39,0-.62-.72-.62-2.09s.25-2.09.63-2.09c.42,0,.6.77.6,2.09s-.2,2.09-.61,2.09h0ZM21.07,21.97c.95,0,1.51-1.1,1.51-3.01,0-1.61-.41-2.96-1.48-2.96s-1.52,1.24-1.52,3.01c0,1.62.44,2.97,1.49,2.97ZM21.08,21.08c-.39,0-.62-.72-.62-2.09s.25-2.09.63-2.09c.42,0,.6.77.6,2.09s-.2,2.09-.61,2.09h0Z"/>
  <line class="ic-attendance-svg-2" x1="11.99" y1="10.51" x2="20.01" y2="10.51"/>
  <line class="ic-attendance-svg-2" x1="11.99" y1="12.51" x2="20.01" y2="12.51"/>
</svg>
