<?xml version="1.0" encoding="UTF-8"?>
<svg id="ic-discussion" data-name="ic-discussion" xmlns="http://www.w3.org/2000/svg" viewBox="0 0 32 32">
  <defs>
    <style>
      .ic-discussion-svg-1 {
        fill: none;
        stroke: currentColor;
        stroke-miterlimit: 10;
      }

      .ic-discussion-svg-2 {
        fill: currentColor;
      }
    </style>
  </defs>
  <polygon class="ic-discussion-svg-1" points="23.85 9.46 23.85 19.43 19.74 19.43 19.74 23.25 15.45 19.43 8.78 19.43 8.78 9.46 23.85 9.46"/>
  <line class="ic-discussion-svg-1" x1="10.71" y1="11.46" x2="21.89" y2="11.46"/>
  <line class="ic-discussion-svg-1" x1="11.48" y1="13.46" x2="21.05" y2="13.46"/>
  <line class="ic-discussion-svg-1" x1="18.45" y1="15.46" x2="21.05" y2="15.46"/>
  <line class="ic-discussion-svg-1" x1="11.48" y1="15.46" x2="13.52" y2="15.46"/>
  <line class="ic-discussion-svg-1" x1="10.93" y1="17.46" x2="13.52" y2="17.46"/>
  <path class="ic-discussion-svg-2" d="M8.07,18.42c-.01-1.37-1.02-2.63-1.03-3.71-.01-1.48.56-3.01,1.96-3.01s2.05,1.14,2.04,3.17c0,.94-.99,2.44-1.01,3.55v.24c.61.79,2.45.44,3.05,2.18.07.21.42,1.05,0,1.84-.56,1.05-1.95,1.08-2.02,1.08h-4.96c-.2-.1-.77-.41-1.08-1.08-.4-.86-.12-1.69,0-1.9.58-.98,1.85-1.41,3-2.03,0,0,.05,0,.05-.34Z"/>
  <path class="ic-discussion-svg-2" d="M22.64,18.42c-.01-1.37-1.02-2.63-1.03-3.71-.01-1.48.56-3.01,1.96-3.01s2.05,1.14,2.04,3.17c0,.94-.99,2.44-1.01,3.55v.24c.61.79,2.45.44,3.05,2.18.07.21.42,1.05,0,1.84-.56,1.05-1.95,1.08-2.02,1.08h-4.96c-.2-.1-.77-.41-1.08-1.08-.4-.86-.12-1.69,0-1.9.58-.98,1.85-1.41,3-2.03,0,0,.05,0,.05-.34Z"/>
  <path class="ic-discussion-svg-2" d="M15.07,20.57c-.01-1.37-1.02-2.63-1.03-3.71-.01-1.48.56-3.01,1.96-3.01s2.05,1.14,2.04,3.17c0,.94-.99,2.44-1.01,3.55v.24c.61.79,2.45.44,3.05,2.18.07.21.42,1.05,0,1.84-.56,1.05-1.95,1.08-2.02,1.08h-4.96c-.2-.1-.77-.41-1.08-1.08-.4-.86-.12-1.69,0-1.9.58-.98,1.85-1.41,3-2.03,0,0,.05,0,.05-.34Z"/>
</svg>
