<?xml version="1.0" encoding="UTF-8"?>
<svg id="ic-faq" data-name="ic-faq" xmlns="http://www.w3.org/2000/svg" viewBox="0 0 32 32">
  <defs>
    <style>
      .ic-faq-svg-1 {
        fill: none;
        stroke: currentColor;
        stroke-miterlimit: 10;
      }

      .ic-faq-svg-2 {
        fill: currentColor;
      }
    </style>
  </defs>
  <polygon class="ic-faq-svg-1" points="6.5 9.5 6.5 19.34 12.52 19.34 12.52 23.62 16.17 19.34 25.42 19.34 25.42 9.5 6.5 9.5"/>
  <g>
    <path class="ic-faq-svg-2" d="M23.09,17.88c-.26.07-.53.1-.83.1-.41,0-.74-.12-1-.35h0c-.12.01-.24.02-.34.02-.77,0-1.37-.25-1.81-.74s-.66-1.18-.66-2.07.22-1.57.66-2.07,1.04-.75,1.81-.75,1.37.25,1.81.75.66,1.19.66,2.07c0,.66-.13,1.22-.38,1.68s-.63.78-1.11.96c.02.33-.3-.41-.16-.28s.35.2.64.2c.22,0,.33,0,.53-.04l.18-.08v.61ZM20.98,13.11c-.45,0-.79.16-1.04.47s-.37.75-.37,1.32.12,1.01.37,1.32.59.47,1.04.47.79-.16,1.04-.47.37-.75.37-1.32-.12-1.01-.37-1.32-.59-.47-1.04-.47Z"/>
    <path class="ic-faq-svg-2" d="M17.9,18h-1.32l-.43-1.3h-2.25l-.43,1.3h-1.27l2.16-5.99h1.39l2.16,5.99ZM15.83,15.77l-.81-2.42-.81,2.42h1.61Z"/>
    <path class="ic-faq-svg-2" d="M11.99,13.01h-2.73v1h1.74v1s-1.73,0-1.73,0v2.98h-1.25v-5.96h3.97v.99Z"/>
  </g>
</svg>
