<?xml version="1.0" encoding="UTF-8"?>
<svg id="ic-monitor" data-name="ic-monitor" xmlns="http://www.w3.org/2000/svg" viewBox="0 0 32 32">
  <defs>
    <style>
      .ic-monitor-svg-1 {
        fill: none;
        stroke: currentColor;
        stroke-miterlimit: 10;
      }

      .ic-monitor-svg-2 {
        fill: currentColor;
      }
    </style>
  </defs>
  <polygon class="ic-monitor-svg-1" points="8.34 9.33 8.34 19.52 12.45 19.52 12.45 24.51 15.74 19.36 23.41 19.41 23.41 9.33 8.34 9.33"/>
  <path class="ic-monitor-svg-2" d="M15.08,16.26c.02-.17.03-.3.03-.43v-.19c-.01-.54.12-.96.41-1.32.21-.27.3-.34.96-.77.66-.44.9-.77.9-1.23,0-.62-.54-1.01-1.42-1.01-.53,0-.97.22-1.22.58-.14.2-.2.38-.25.77l-1.52-.18c.16-.75.37-1.14.81-1.54.52-.47,1.3-.72,2.26-.72,1.65,0,2.79.84,2.79,2.05,0,.49-.11.87-.36,1.21-.24.32-.42.47-1.26,1.04-.65.43-.8.68-.8,1.22,0,.16.01.33.03.52h-1.37ZM16.51,17.11v1.4h-1.49v-1.4h1.49Z"/>
</svg>
