<?xml version="1.0" encoding="UTF-8"?>
<svg id="ic-qna" data-name="ic-qna" xmlns="http://www.w3.org/2000/svg" viewBox="0 0 32 32">
  <defs>
    <style>
      .ic-qna-svg-1 {
        fill: none;
        stroke: currentColor;
        stroke-miterlimit: 10;
      }

      .ic-qna-svg-2 {
        fill: currentColor;
      }
    </style>
  </defs>
  <polygon class="ic-qna-svg-1" points="5.44 8.51 5.44 18.5 9.56 18.5 9.56 22.57 12.56 18.5 16.52 18.39 16.52 8.51 5.44 8.51"/>
  <polygon class="ic-qna-svg-1" points="27.59 12.59 27.59 22.58 23.48 22.58 23.48 26.65 20.48 22.58 16.52 22.47 16.52 12.59 27.59 12.59"/>
  <path class="ic-qna-svg-2" d="M13.65,17.5c-.17-.22-.25-.3-.81-.86-.49.28-.94.4-1.56.4-.9,0-1.65-.29-2.2-.85-.63-.64-.96-1.56-.96-2.64,0-2.14,1.26-3.53,3.19-3.53s3.14,1.36,3.14,3.49c0,.58-.09,1.09-.27,1.57-.15.38-.29.59-.64,1l.24.23c.19.19.36.32.55.47l-.69.72ZM12.08,14.62c.14.18.31.35.66.69.37-.46.53-.97.53-1.81s-.24-1.53-.68-1.97c-.34-.34-.79-.52-1.31-.52s-.97.18-1.31.52c-.44.44-.68,1.14-.68,2.02,0,1.53.79,2.53,2.01,2.53.29,0,.53-.05.76-.17-.26-.25-.43-.41-.68-.59l.69-.68Z"/>
  <path class="ic-qna-svg-2" d="M24.11,20.98c-.05-.29-.15-.67-.25-.92l-.35-.96h-2.8l-.35.96c-.16.42-.19.55-.26.92h-1.44c.13-.24.31-.63.46-1.03l1.93-5.05c.17-.44.24-.66.28-.88h1.52c.04.21.1.35.3.88l1.94,5.05c.22.56.32.81.45,1.03h-1.44ZM22.26,15.51c-.03-.1-.06-.2-.16-.49q-.14.41-.17.49l-.91,2.59h2.17l-.94-2.59Z"/>
</svg>
