<?xml version="1.0" encoding="UTF-8"?>
<svg id="ic-survey" data-name="ic-survey" xmlns="http://www.w3.org/2000/svg" viewBox="0 0 32 32">
  <defs>
    <style>
      .ic-survey-svg-1 {
        fill: none;
        stroke: currentColor;
        stroke-miterlimit: 10;
      }

      .ic-survey-svg-2 {
        fill: currentColor;
      }
    </style>
  </defs>
  <path class="ic-survey-svg-2" d="M23,24.96h-14.01V7.04h14.01v17.92ZM21.66,8.47l-3.76.02v1.64s-3.69.02-3.69.02v-1.66s-3.86-.02-3.86-.02v15.15h11.32v-15.15Z"/>
  <rect class="ic-survey-svg-2" x="13.01" y="8.05" width="5.98" height="2.98"/>
  <line class="ic-survey-svg-1" x1="11.99" y1="15.47" x2="20.01" y2="15.47"/>
  <line class="ic-survey-svg-1" x1="11.99" y1="13.48" x2="20.01" y2="13.48"/>
  <line class="ic-survey-svg-1" x1="11.99" y1="17.46" x2="15.19" y2="17.46"/>
  <line class="ic-survey-svg-1" x1="11.99" y1="19.48" x2="14.87" y2="19.48"/>
  <line class="ic-survey-svg-1" x1="11.99" y1="21.5" x2="15.06" y2="21.5"/>
  <path class="ic-survey-svg-2" d="M20.6,23.4c-.16-.21-.23-.28-.76-.81-.47.26-.89.38-1.48.38-.85,0-1.57-.27-2.09-.8-.59-.6-.91-1.48-.91-2.51,0-2.02,1.2-3.35,3.02-3.35s2.98,1.29,2.98,3.31c0,.55-.09,1.04-.26,1.49-.14.36-.27.56-.6.95l.22.22c.18.18.34.31.52.45l-.65.68ZM19.11,20.66c.14.17.3.33.63.65.35-.43.5-.92.5-1.72s-.22-1.45-.64-1.87c-.32-.32-.75-.49-1.24-.49s-.92.17-1.24.49c-.42.42-.64,1.08-.64,1.91,0,1.45.75,2.39,1.9,2.39.27,0,.5-.05.72-.16-.25-.24-.41-.39-.64-.56l.66-.64Z"/>
</svg>
