<?xml version="1.0" encoding="UTF-8"?>
<svg id="ic-todo" data-name="ic-todo" xmlns="http://www.w3.org/2000/svg" viewBox="0 0 32 32">
  <defs>
    <style>
      .ic-todo-svg-1 {
        stroke: currentColor;
      }

      .ic-todo-svg-1, .ic-todo-svg-2, .ic-todo-svg-3 {
        fill: none;
        stroke-miterlimit: 10;
      }

      .ic-todo-svg-2 {
        stroke: #939393;
        stroke-width: 2px;
      }

      .ic-todo-svg-3 {
        stroke: #999;
      }

      .ic-todo-svg-4 {
        fill: currentColor;
      }
    </style>
  </defs>
  <rect class="ic-todo-svg-1" x="8.56" y="8.49" width="14.97" height="14.97"/>
  <polygon class="ic-todo-svg-4" points="15.01 10.79 12.4 12.77 11.99 11.79 10.02 11.79 11.88 14.76 15.99 10.79 15.01 10.79"/>
  <polygon class="ic-todo-svg-4" points="15.01 17.98 12.4 19.97 11.99 18.98 10.02 18.98 11.88 21.95 15.99 17.98 15.01 17.98"/>
  <line class="ic-todo-svg-1" x1="17.54" y1="19.99" x2="17.54" y2="19.02"/>
  <line class="ic-todo-svg-1" x1="19.54" y1="19.99" x2="19.54" y2="19.02"/>
  <line class="ic-todo-svg-1" x1="21.54" y1="19.99" x2="21.54" y2="19.02"/>
  <line class="ic-todo-svg-3" x1="17.54" y1="12.99" x2="17.54" y2="11.01"/>
  <line class="ic-todo-svg-3" x1="19.54" y1="12.99" x2="19.54" y2="11.01"/>
  <line class="ic-todo-svg-3" x1="21.54" y1="12.99" x2="21.54" y2="11.01"/>
  <line class="ic-todo-svg-2" x1="9.06" y1="16" x2="23.03" y2="16"/>
</svg>
