<?xml version="1.0" encoding="UTF-8"?>
<svg id="ic-workflow2" data-name="ic-workflow2" xmlns="http://www.w3.org/2000/svg" viewBox="0 0 32 32">
  <defs>
    <style>
      .ic-workflow2-svg-1 {
        stroke-linecap: round;
        stroke-linejoin: round;
        stroke-width: 1.5px;
      }

      .ic-workflow2-svg-1, .ic-workflow2-svg-2 {
        fill: none;
        stroke: currentColor;
      }
      .ic-workflow2-svg-2 {
        stroke-miterlimit: 10;
      }

      .ic-workflow2-svg-3 {
        fill: currentColor;
      }
    </style>
  </defs>
  <path class="ic-workflow2-svg-2" d="M19.47,24.55h-10.98v-14.99h6.31c-.49,3.58,1.98,6.44,4.66,6.68h0v8.31Z"/>
  <line class="ic-workflow2-svg-2" x1="9.99" y1="11.56" x2="11.98" y2="11.56"/>
  <line class="ic-workflow2-svg-2" x1="9.99" y1="13.56" x2="13.99" y2="13.56"/>
  <line class="ic-workflow2-svg-2" x1="9.99" y1="16.56" x2="17.98" y2="16.56"/>
  <line class="ic-workflow2-svg-2" x1="9.99" y1="18.56" x2="17.98" y2="18.56"/>
  <line class="ic-workflow2-svg-2" x1="9.99" y1="20.56" x2="17.98" y2="20.56"/>
  <line class="ic-workflow2-svg-2" x1="9.99" y1="22.56" x2="17.98" y2="22.56"/>
  <path class="ic-workflow2-svg-1" d="M20.8,5.55c.26-.01-.27-.03,0,0,2.93.31,5.06,2.94,4.75,5.87s-2.94,5.06-5.87,4.75-5.06-2.94-4.75-5.87c.16-1.49.68-2.43,1.62-3.31"/>
  <path class="ic-workflow2-svg-3" d="M14.21,6.35l3.07-.71c.23-.05.44.16.39.39l-.68,3.11c-.05.23-.34.3-.51.12l-2.39-2.4c-.17-.17-.11-.46.12-.51Z"/>
</svg>
