<?xml version="1.0" encoding="UTF-8"?>
<svg id="ic-report" data-name="ic-report" xmlns="http://www.w3.org/2000/svg" viewBox="0 0 32 32">
  <defs>
    <style>
      .ic-report-svg-1 {
        fill: none;
        stroke: currentColor;
        stroke-miterlimit: 10;
      }

      .ic-report-svg-2 {
        fill: currentColor;
      }
    </style>
  </defs>
  <polygon class="ic-report-svg-1" points="21.55 23.4 10.57 23.4 10.57 8.41 19.88 8.41 21.55 10.09 21.55 23.4"/>
  <line class="ic-report-svg-1" x1="12.06" y1="10.41" x2="14.06" y2="10.41"/>
  <line class="ic-report-svg-1" x1="12.06" y1="12.41" x2="14.51" y2="12.41"/>
  <line class="ic-report-svg-1" x1="12.06" y1="15.41" x2="13.5" y2="15.41"/>
  <line class="ic-report-svg-1" x1="12.06" y1="17.41" x2="13.92" y2="17.41"/>
  <line class="ic-report-svg-1" x1="12.06" y1="19.41" x2="20.05" y2="19.41"/>
  <line class="ic-report-svg-1" x1="12.06" y1="21.41" x2="20.05" y2="21.41"/>
  <polygon class="ic-report-svg-2" points="19.06 7.91 19.06 10.91 22.06 10.91 22.06 9.91 20.08 7.91 19.06 7.91"/>
  <path class="ic-report-svg-2" d="M17.95,13.94l1.94.27c.01.05.02.1.03.15.31,1.57-.66,3.13-2.24,3.52s-3.27-.58-3.67-2.2.58-3.27,2.2-3.67c.68-.17,1.21-.14,1.74.07v1.86"/>
</svg>
