<svg xmlns="http://www.w3.org/2000/svg" width="70" height="75" viewBox="0 0 70 75">
  <g transform="translate(-47 -126)">
    <path id="前面オブジェクトで型抜き_1" data-name="前面オブジェクトで型抜き 1" d="M-14,9.921H-58a10.432,10.432,0,0,1-7.425-3.075A10.432,10.432,0,0,1-68.5-.58v-49A10.512,10.512,0,0,1-58-60.08h34.835L-3.5-41.743V-.58A10.432,10.432,0,0,1-6.575,6.845,10.432,10.432,0,0,1-14,9.921ZM-23.824-59.7a1.023,1.023,0,0,0-.751.331.98.98,0,0,0-.252.756l1.489,17.32a1,1,0,0,0,.98.914l17.383.276h.017a.981.981,0,0,0,.929-.634.981.981,0,0,0-.248-1.1l-18.87-17.6A.976.976,0,0,0-23.824-59.7Z" transform="translate(118 188.579)" fill="#e0e0e0"/>
    <path id="前面オブジェクトで型抜き_1_-_アウトライン" data-name="前面オブジェクトで型抜き 1 - アウトライン" d="M-14,12.421H-58a12.915,12.915,0,0,1-9.193-3.808A12.915,12.915,0,0,1-71-.58v-49a13.015,13.015,0,0,1,13-13h34.835a2.5,2.5,0,0,1,1.7.672L-1.8-43.571A2.5,2.5,0,0,1-1-41.743V-.58A12.915,12.915,0,0,1-4.808,8.613,12.915,12.915,0,0,1-14,12.421Zm-44-70a8.009,8.009,0,0,0-8,8v49a7.948,7.948,0,0,0,2.343,5.657A7.948,7.948,0,0,0-58,7.421h44A7.948,7.948,0,0,0-8.343,5.078,7.948,7.948,0,0,0-6-.58V-37.616l-16.4-.261a3.49,3.49,0,0,1-3.431-3.2l-1.418-16.5Zm37.036,14.725,12.129.193L-22-54.941Z" transform="translate(118 188.579)" fill="#707070"/>
  </g>
</svg>
