<svg xmlns="http://www.w3.org/2000/svg" viewBox="0 0 12.03 12.03"><defs><style>.cls-1{opacity:0.85;}.cls-2{fill:#3b4043;}</style></defs><g id="レイヤー_2" data-name="レイヤー 2"><g id="レイヤー_1-2" data-name="レイヤー 1"><g class="cls-1"><path class="cls-2" d="M.84,0V1.6a9.6,9.6,0,0,1,9.59,9.6H12A11.21,11.21,0,0,0,.84,0Z"/><path class="cls-2" d="M.84,3.2V4.8a6.4,6.4,0,0,1,6.39,6.4h1.6A8,8,0,0,0,.84,3.2Z"/><path class="cls-2" d="M.84,6.4V8A3.2,3.2,0,0,1,4,11.2h1.6A4.81,4.81,0,0,0,.84,6.4Z"/><path class="cls-2" d="M1.16,9.72a1.16,1.16,0,1,0,1.15,1.16A1.16,1.16,0,0,0,1.16,9.72Z"/></g></g></g></svg>